<?xml version="1.0" encoding="UTF-8" standalone="no"?>
<!-- Generator: Adobe Illustrator 13.0.0, SVG Export Plug-In . SVG Version: 6.00 Build 14948)  -->

<svg
   xmlns:dc="http://purl.org/dc/elements/1.1/"
   xmlns:cc="http://creativecommons.org/ns#"
   xmlns:rdf="http://www.w3.org/1999/02/22-rdf-syntax-ns#"
   xmlns:svg="http://www.w3.org/2000/svg"
   xmlns="http://www.w3.org/2000/svg"
   xmlns:sodipodi="http://sodipodi.sourceforge.net/DTD/sodipodi-0.dtd"
   xmlns:inkscape="http://www.inkscape.org/namespaces/inkscape"
   version="1.1"
   x="0px"
   y="0px"
   width="619.14008"
   height="719.0014"
   viewBox="0 0 619.14008 719.0014"
   enable-background="new 0 0 800 800"
   xml:space="preserve"
   id="svg2"
   inkscape:version="0.47 r22583"
   sodipodi:docname="Network_neutrality_symbol_english.svg"><metadata
   id="metadata114"><rdf:RDF><cc:Work
       rdf:about=""><dc:format>image/svg+xml</dc:format><dc:type
         rdf:resource="http://purl.org/dc/dcmitype/StillImage" /></cc:Work></rdf:RDF></metadata><defs
   id="defs112"><inkscape:perspective
   sodipodi:type="inkscape:persp3d"
   inkscape:vp_x="0 : 400 : 1"
   inkscape:vp_y="0 : 1000 : 0"
   inkscape:vp_z="800 : 400 : 1"
   inkscape:persp3d-origin="400 : 266.66667 : 1"
   id="perspective116" />
	
	
	

	
	
	
	
	
	
	
	
	
	
	
	

	<radialGradient
   gradientUnits="userSpaceOnUse"
   r="232.0163"
   cy="394.9155"
   cx="400.5361"
   id="SVGID_1_">
		<stop
   id="stop6"
   style="stop-color:#8ff7bf;stop-opacity:1;"
   offset="0" />
		
		
		
		
		
		
		<stop
   id="stop20"
   style="stop-color:#00d154;stop-opacity:1;"
   offset="0.90930003" />
		
		<stop
   id="stop24"
   style="stop-color:#004200;stop-opacity:1;"
   offset="1" />
	</radialGradient>
	

	
	
</defs><sodipodi:namedview
   pagecolor="#ffffff"
   bordercolor="#666666"
   borderopacity="1"
   objecttolerance="10"
   gridtolerance="10"
   guidetolerance="10"
   inkscape:pageopacity="0"
   inkscape:pageshadow="2"
   inkscape:window-width="1280"
   inkscape:window-height="971"
   id="namedview110"
   showgrid="false"
   showguides="true"
   inkscape:guide-bbox="true"
   inkscape:zoom="0.15932"
   inkscape:cx="-211.78446"
   inkscape:cy="1.7537505"
   inkscape:window-x="-8"
   inkscape:window-y="-8"
   inkscape:window-maximized="1"
   inkscape:current-layer="svg2" />
<rect
   style="fill:#ffffff;fill-opacity:1;stroke:none"
   id="rect3886"
   width="619.14008"
   height="719.0014"
   x="0"
   y="0" /><circle
   sodipodi:ry="232.017"
   sodipodi:rx="232.017"
   sodipodi:cy="394.91599"
   sodipodi:cx="400.53601"
   style="fill:url(#SVGID_1_)"
   id="circle26"
   r="232.017"
   cy="394.91599"
   cx="400.53601"
   transform="translate(-88.765604,-98.751729)" />
<circle
   style="fill:#ffffff"
   sodipodi:ry="33.571999"
   sodipodi:rx="33.571999"
   sodipodi:cy="521.56"
   sodipodi:cx="261.86801"
   d="m 295.44001,521.56 c 0,18.5413 -15.0307,33.572 -33.572,33.572 -18.5413,0 -33.572,-15.0307 -33.572,-33.572 0,-18.54131 15.0307,-33.572 33.572,-33.572 18.5413,0 33.572,15.03069 33.572,33.572 z"
   id="circle29"
   r="33.571999"
   cy="521.56"
   cx="261.86801"
   transform="translate(-85.170146,-103.54568)" /><circle
   style="fill:#ffffff"
   sodipodi:ry="33.573002"
   sodipodi:rx="33.573002"
   sodipodi:cy="262.06"
   sodipodi:cx="537.36902"
   d="m 570.94202,262.06 c 0,18.54185 -15.03114,33.573 -33.573,33.573 -18.54186,0 -33.573,-15.03115 -33.573,-33.573 0,-18.54186 15.03114,-33.573 33.573,-33.573 18.54186,0 33.573,15.03114 33.573,33.573 z"
   id="circle31"
   r="33.573002"
   cy="262.06"
   cx="537.36902"
   transform="translate(-93.559548,-90.362329)" /><circle
   sodipodi:ry="33.571999"
   sodipodi:rx="33.571999"
   sodipodi:cy="393.05899"
   sodipodi:cx="589.36902"
   d="m 622.94102,393.05899 c 0,18.5413 -15.0307,33.572 -33.572,33.572 -18.5413,0 -33.572,-15.0307 -33.572,-33.572 0,-18.5413 15.0307,-33.572 33.572,-33.572 18.5413,0 33.572,15.0307 33.572,33.572 z"
   id="circle33"
   r="33.571999"
   cy="393.05899"
   cx="589.36902"
   transform="translate(-94.758035,-99.950219)" /><circle
   sodipodi:ry="33.573002"
   sodipodi:rx="33.573002"
   sodipodi:cy="393.05899"
   sodipodi:cx="209.369"
   d="m 242.94201,393.05899 c 0,18.54186 -15.03115,33.573 -33.57301,33.573 -18.54185,0 -33.573,-15.03114 -33.573,-33.573 0,-18.54186 15.03115,-33.573 33.573,-33.573 18.54186,0 33.57301,15.03114 33.57301,33.573 z"
   id="circle35"
   r="33.573002"
   cy="393.05899"
   cx="209.369"
   transform="translate(-66.029649,-58.81953)" /><circle
   sodipodi:ry="33.571999"
   sodipodi:rx="33.571999"
   sodipodi:cy="583.05902"
   sodipodi:cx="399.36801"
   d="m 432.94001,583.05902 c 0,18.5413 -15.0307,33.572 -33.572,33.572 -18.5413,0 -33.572,-15.0307 -33.572,-33.572 0,-18.5413 15.0307,-33.572 33.572,-33.572 18.5413,0 33.572,15.0307 33.572,33.572 z"
   id="circle37"
   r="33.571999"
   cy="583.05902"
   cx="399.36801"
   transform="translate(-94.758035,-102.34719)" /><circle
   sodipodi:ry="33.573002"
   sodipodi:rx="33.573002"
   sodipodi:cy="203.05901"
   sodipodi:cx="399.36899"
   d="m 432.94199,203.05901 c 0,18.54185 -15.03115,33.573 -33.573,33.573 -18.54186,0 -33.573,-15.03115 -33.573,-33.573 0,-18.54186 15.03114,-33.57301 33.573,-33.57301 18.54185,0 33.573,15.03115 33.573,33.57301 z"
   id="circle39"
   r="33.573002"
   cy="203.05901"
   cx="399.36899"
   transform="translate(-13.260982,-75.980498)" />
<polygon
   style="fill:#ffffff"
   id="polygon54"
   points="272.739,497.608 302.534,473.233 302.534,290.178 477.532,449.565 477.532,300.178 512.341,267.793 528.262,284.392 499.782,311.708 499.782,497.922 323.789,338.293 323.789,487.922 288.66,514.207 "
   transform="translate(-88.765604,-98.751729)" /><path
   d="m 383.5994,337.44927 -175.856,-159.629 0,170.682 -60.286,0 -1.474,-23.742 40.504,0 0,-193.055 174.999,159.387 0,-85.387 -0.81972,-57.99965 21.644,-7.11 1.42572,57.63865 -0.137,139.215 z"
   id="polygon56"
   sodipodi:nodetypes="ccccccccccccc" /><polygon
   id="polygon58"
   points="567.058,405.254 526.554,405.254 526.905,557.416 351.591,398.491 351.764,483.878 409.462,554.909 387.836,562.077 329.534,491.408 329.534,352.193 505.523,511.355 505.523,381.512 565.528,381.512 "
   transform="translate(-88.765604,-98.751729)" />
<g
   id="g61"
   transform="translate(576.59568,-555.42611)">
		<path
   id="path63"
   d="m 182.558,604.935 -8.967,45.65 27.491,-27.904 c 1.787,-1.813 3.515,-2.79 5.188,-2.93 1.671,-0.139 3.169,0.442 4.492,1.746 1.365,1.345 1.996,2.859 1.892,4.544 -0.104,1.685 -1.049,3.434 -2.835,5.247 l -36.351,36.896 c -4.057,4.118 -7.792,4.495 -11.205,1.132 -0.854,-0.841 -1.5,-1.72 -1.942,-2.638 -0.441,-0.918 -0.698,-1.938 -0.769,-3.06 -0.072,-1.122 -0.012,-2.292 0.18,-3.512 0.192,-1.219 0.4,-2.453 0.624,-3.705 l 9.1,-44.889 L 142.374,639 c -1.766,1.792 -3.517,2.737 -5.252,2.834 -1.736,0.098 -3.255,-0.494 -4.556,-1.776 -1.344,-1.324 -1.964,-2.85 -1.86,-4.576 0.103,-1.727 1.027,-3.475 2.772,-5.246 l 35.657,-36.192 c 1.513,-1.536 2.871,-2.573 4.075,-3.111 1.351,-0.562 2.795,-0.684 4.333,-0.366 1.538,0.316 2.851,1.012 3.938,2.083 0.853,0.841 1.447,1.7 1.782,2.576 0.334,0.876 0.5,1.774 0.497,2.696 -0.004,0.921 -0.133,1.991 -0.389,3.211 -0.256,1.22 -0.526,2.487 -0.813,3.802 z" />
		<path
   id="path65"
   d="m 251.845,663.771 -25.199,-16.377 -8.813,13.561 23.203,15.079 c 1.707,1.109 2.732,2.32 3.076,3.633 0.343,1.313 0.107,2.598 -0.708,3.853 -0.816,1.256 -1.896,2.01 -3.238,2.262 -1.343,0.253 -2.88,-0.185 -4.613,-1.311 l -23.203,-15.079 -10.208,15.707 26.065,16.939 c 1.757,1.143 2.816,2.412 3.178,3.807 0.36,1.396 0.101,2.771 -0.78,4.127 -0.849,1.307 -1.985,2.078 -3.406,2.314 -1.422,0.236 -3.012,-0.217 -4.77,-1.358 l -30.396,-19.755 c -2.436,-1.583 -3.837,-3.262 -4.202,-5.034 -0.366,-1.773 0.235,-3.866 1.802,-6.276 l 26.976,-41.508 c 1.044,-1.607 2.136,-2.765 3.274,-3.472 1.138,-0.707 2.366,-0.962 3.685,-0.766 1.319,0.196 2.77,0.809 4.352,1.837 l 29.53,19.191 c 1.783,1.159 2.851,2.415 3.203,3.77 0.352,1.354 0.112,2.671 -0.72,3.952 -0.849,1.306 -1.963,2.072 -3.343,2.301 -1.38,0.228 -2.962,-0.238 -4.745,-1.397 z" />
		<path
   id="path67"
   d="m 253.332,697.138 11.547,-29.49 c 0.982,-2.51 2.284,-4.171 3.905,-4.983 1.621,-0.813 3.351,-0.858 5.192,-0.139 1.924,0.754 3.205,1.979 3.843,3.676 0.638,1.697 0.466,3.801 -0.517,6.311 l -11.809,30.159 c -1.343,3.431 -2.082,6.445 -2.216,9.047 -0.134,2.601 0.526,4.918 1.982,6.951 1.455,2.033 3.94,3.737 7.454,5.113 4.852,1.899 8.787,1.953 11.805,0.16 3.018,-1.793 5.553,-5.312 7.606,-10.555 l 11.907,-30.41 c 0.994,-2.537 2.291,-4.208 3.893,-5.013 1.601,-0.804 3.336,-0.841 5.205,-0.108 1.868,0.73 3.138,1.944 3.81,3.638 0.671,1.694 0.51,3.811 -0.483,6.348 l -11.547,29.49 c -1.878,4.797 -3.913,8.615 -6.102,11.456 -2.19,2.842 -5.057,4.968 -8.6,6.378 -3.04,1.19 -6.223,1.681 -9.549,1.472 -3.327,-0.21 -6.971,-1.09 -10.931,-2.64 -4.713,-1.846 -8.571,-3.943 -11.575,-6.293 -3.004,-2.35 -5.162,-5.013 -6.473,-7.986 -1.313,-2.974 -1.818,-6.323 -1.517,-10.049 0.301,-3.727 1.358,-7.904 3.17,-12.533 z" />
		<path
   id="path69"
   d="m 367.202,701.275 -14.332,-2.538 -8.343,47.108 c -0.48,2.714 -1.442,4.619 -2.883,5.717 -1.442,1.098 -3.121,1.478 -5.038,1.138 -1.946,-0.345 -3.414,-1.289 -4.402,-2.832 -0.989,-1.544 -1.246,-3.657 -0.771,-6.341 l 8.343,-47.109 -14.332,-2.538 c -2.242,-0.396 -3.82,-1.186 -4.736,-2.367 -0.916,-1.181 -1.23,-2.582 -0.943,-4.204 0.298,-1.681 1.101,-2.907 2.408,-3.68 1.307,-0.771 3.038,-0.967 5.19,-0.586 l 41.757,7.396 c 2.27,0.401 3.87,1.202 4.798,2.4 0.928,1.199 1.249,2.609 0.961,4.23 -0.287,1.622 -1.079,2.828 -2.374,3.617 -1.295,0.791 -3.063,0.986 -5.303,0.589 z" />
		<path
   id="path71"
   d="m 396.26,729.009 -4.671,0.076 0.343,21.155 c 0.045,2.784 -0.536,4.846 -1.742,6.183 -1.207,1.338 -2.798,2.022 -4.774,2.055 -2.126,0.034 -3.784,-0.628 -4.975,-1.986 -1.19,-1.357 -1.807,-3.369 -1.85,-6.035 l -0.821,-50.665 c -0.046,-2.875 0.563,-4.966 1.83,-6.274 1.267,-1.308 3.337,-1.986 6.212,-2.033 l 21.694,-0.352 c 2.994,-0.049 5.557,0.038 7.688,0.258 2.13,0.22 4.055,0.705 5.774,1.456 2.08,0.835 3.926,2.048 5.54,3.64 1.613,1.591 2.849,3.45 3.707,5.578 0.857,2.128 1.307,4.39 1.346,6.784 0.079,4.911 -1.242,8.856 -3.964,11.836 -2.723,2.979 -6.889,5.129 -12.498,6.447 2.386,1.22 4.677,3.04 6.873,5.46 2.195,2.42 4.161,5.002 5.898,7.744 1.736,2.742 3.095,5.222 4.074,7.437 0.979,2.216 1.476,3.743 1.489,4.581 0.015,0.869 -0.249,1.733 -0.789,2.597 -0.54,0.862 -1.285,1.548 -2.235,2.058 -0.951,0.51 -2.054,0.774 -3.312,0.795 -1.498,0.024 -2.762,-0.308 -3.79,-0.994 -1.03,-0.687 -1.92,-1.564 -2.671,-2.63 -0.752,-1.066 -1.772,-2.637 -3.064,-4.713 l -5.489,-8.807 c -1.97,-3.232 -3.725,-5.69 -5.264,-7.373 -1.54,-1.682 -3.094,-2.825 -4.661,-3.429 -1.567,-0.604 -3.533,-0.887 -5.898,-0.849 z m 7.187,-27.792 -12.307,0.199 0.293,18.102 11.948,-0.194 c 3.203,-0.052 5.895,-0.372 8.071,-0.962 2.177,-0.589 3.831,-1.56 4.962,-2.91 1.131,-1.352 1.678,-3.195 1.641,-5.53 -0.03,-1.826 -0.521,-3.429 -1.471,-4.807 -0.951,-1.377 -2.256,-2.396 -3.914,-3.059 -1.566,-0.633 -4.641,-0.913 -9.223,-0.839 z" />
		<path
   id="path73"
   d="m 491.22,737.87 -4.854,-7.392 -26.143,5.776 -1.248,8.925 c -0.488,3.482 -1.032,5.88 -1.631,7.192 -0.601,1.313 -1.864,2.184 -3.794,2.61 -1.639,0.361 -3.219,0.082 -4.74,-0.839 -1.522,-0.921 -2.451,-2.142 -2.788,-3.663 -0.193,-0.877 -0.248,-1.815 -0.162,-2.816 0.086,-1 0.28,-2.408 0.585,-4.224 l 7.221,-45.394 c 0.203,-1.302 0.448,-2.866 0.734,-4.693 0.286,-1.826 0.68,-3.378 1.18,-4.654 0.5,-1.275 1.281,-2.392 2.343,-3.347 1.062,-0.955 2.484,-1.63 4.269,-2.024 1.813,-0.4 3.402,-0.392 4.768,0.027 1.366,0.419 2.54,1.088 3.525,2.004 0.984,0.918 1.87,1.941 2.656,3.071 0.786,1.13 1.804,2.646 3.053,4.547 l 25.969,37.782 c 2.014,2.867 3.18,5.019 3.496,6.45 0.329,1.492 0.01,2.996 -0.958,4.514 -0.969,1.518 -2.329,2.47 -4.084,2.857 -1.024,0.227 -1.941,0.237 -2.753,0.033 -0.813,-0.204 -1.536,-0.564 -2.172,-1.084 -0.637,-0.519 -1.383,-1.365 -2.241,-2.541 -0.858,-1.173 -1.601,-2.213 -2.231,-3.117 z m -29.737,-12.152 19.212,-4.246 -15.558,-24.395 -3.654,28.641 z" />
		<path
   id="path75"
   d="m 510.646,676.933 18.963,44.021 24.837,-10.698 c 1.98,-0.854 3.707,-1.026 5.181,-0.521 1.474,0.508 2.524,1.489 3.152,2.946 0.64,1.485 0.636,2.914 -0.013,4.286 -0.649,1.372 -1.977,2.489 -3.984,3.354 L 529.2,733.063 c -2.668,1.149 -4.841,1.385 -6.52,0.705 -1.679,-0.678 -3.086,-2.339 -4.224,-4.979 l -20.064,-46.578 c -1.066,-2.476 -1.31,-4.572 -0.729,-6.29 0.581,-1.718 1.778,-2.967 3.594,-3.749 1.843,-0.794 3.599,-0.824 5.268,-0.093 1.668,0.734 3.042,2.351 4.121,4.854 z" />
		<path
   id="path77"
   d="M 572.968,704.283 546.411,659.71 c -1.38,-2.315 -1.888,-4.366 -1.521,-6.153 0.364,-1.786 1.383,-3.177 3.056,-4.174 1.724,-1.026 3.461,-1.285 5.21,-0.777 1.75,0.51 3.323,1.935 4.718,4.275 l 26.557,44.573 c 1.395,2.341 1.902,4.409 1.525,6.202 -0.378,1.794 -1.43,3.205 -3.152,4.231 -1.647,0.981 -3.354,1.204 -5.118,0.67 -1.764,-0.534 -3.338,-1.958 -4.718,-4.274 z" />
		<path
   id="path79"
   d="m 603.989,623.727 -11.407,9.041 29.716,37.494 c 1.712,2.159 2.5,4.143 2.365,5.949 -0.136,1.807 -0.965,3.315 -2.49,4.524 -1.549,1.228 -3.229,1.699 -5.04,1.415 -1.812,-0.284 -3.563,-1.494 -5.256,-3.63 l -29.716,-37.494 -11.406,9.04 c -1.784,1.414 -3.422,2.072 -4.913,1.974 -1.492,-0.098 -2.749,-0.793 -3.772,-2.084 -1.06,-1.337 -1.445,-2.752 -1.155,-4.242 0.289,-1.49 1.291,-2.915 3.005,-4.273 l 33.234,-26.339 c 1.807,-1.433 3.467,-2.098 4.979,-1.998 1.513,0.101 2.78,0.797 3.804,2.087 1.022,1.291 1.399,2.684 1.131,4.176 -0.269,1.493 -1.296,2.946 -3.079,4.36 z" />
		<path
   id="path81"
   d="m 657.598,636.848 -15.646,-13.841 -29.329,-4.475 c -2.615,-0.434 -4.587,-0.85 -5.916,-1.245 -1.329,-0.396 -2.341,-0.901 -3.036,-1.517 -1.144,-1.013 -1.739,-2.328 -1.785,-3.948 -0.046,-1.62 0.506,-3.081 1.657,-4.382 1.21,-1.368 2.515,-2.063 3.914,-2.086 1.398,-0.021 3.879,0.283 7.439,0.913 l 23.127,4.027 -6.727,-22.565 c -0.424,-1.374 -0.781,-2.529 -1.071,-3.467 -0.291,-0.937 -0.508,-1.878 -0.65,-2.824 -0.142,-0.946 -0.112,-1.828 0.093,-2.647 0.204,-0.818 0.664,-1.632 1.378,-2.439 1.111,-1.256 2.448,-1.942 4.011,-2.06 1.563,-0.116 2.883,0.301 3.96,1.254 0.874,0.773 1.561,1.761 2.059,2.961 0.497,1.2 1.063,3.001 1.699,5.401 l 8.019,29.105 15.645,13.841 c 2.042,1.806 3.15,3.626 3.326,5.461 0.176,1.835 -0.382,3.482 -1.671,4.939 -1.31,1.48 -2.871,2.239 -4.683,2.276 -1.812,0.037 -3.75,-0.857 -5.813,-2.682 z" />
	</g><g
   id="g83"
   transform="translate(570.319,-153.71884)">
		<path
   id="path85"
   d="m 180.397,126.885 43.878,15.461 -23.644,-31.231 c -1.537,-2.029 -2.253,-3.881 -2.15,-5.556 0.103,-1.674 0.895,-3.072 2.375,-4.193 1.528,-1.157 3.118,-1.562 4.77,-1.217 1.651,0.347 3.246,1.534 4.782,3.563 l 31.264,41.295 c 3.489,4.608 3.323,8.359 -0.497,11.251 -0.955,0.723 -1.919,1.236 -2.891,1.541 -0.972,0.304 -2.018,0.411 -3.139,0.319 -1.12,-0.09 -2.27,-0.318 -3.448,-0.685 -1.179,-0.366 -2.371,-0.75 -3.577,-1.152 l -43.105,-15.483 23.292,30.765 c 1.518,2.006 2.201,3.875 2.046,5.606 -0.154,1.731 -0.959,3.149 -2.416,4.252 -1.504,1.139 -3.103,1.532 -4.797,1.181 -1.694,-0.351 -3.29,-1.519 -4.791,-3.5 l -30.667,-40.507 c -1.302,-1.719 -2.132,-3.212 -2.491,-4.481 -0.36,-1.417 -0.272,-2.864 0.264,-4.341 0.535,-1.476 1.412,-2.674 2.629,-3.597 0.955,-0.723 1.891,-1.187 2.806,-1.392 0.916,-0.205 1.829,-0.238 2.74,-0.102 0.911,0.137 1.952,0.419 3.121,0.848 1.172,0.43 2.387,0.881 3.646,1.355 z" />
		<path
   id="path87"
   d="m 268.492,78.364 -27.121,12.948 6.967,14.594 24.972,-11.921 c 1.838,-0.877 3.406,-1.12 4.705,-0.728 1.299,0.393 2.271,1.264 2.916,2.615 0.646,1.352 0.725,2.666 0.24,3.943 -0.486,1.277 -1.661,2.361 -3.525,3.251 l -24.972,11.922 8.07,16.905 28.053,-13.393 c 1.891,-0.903 3.527,-1.144 4.906,-0.725 1.378,0.421 2.417,1.36 3.113,2.82 0.671,1.406 0.736,2.777 0.196,4.113 -0.541,1.336 -1.757,2.456 -3.648,3.359 l -32.715,15.619 c -2.622,1.251 -4.784,1.57 -6.487,0.957 -1.704,-0.613 -3.174,-2.218 -4.413,-4.813 L 228.421,95.156 c -0.825,-1.729 -1.243,-3.264 -1.252,-4.604 -0.009,-1.339 0.415,-2.521 1.27,-3.543 0.856,-1.022 2.135,-1.94 3.838,-2.753 L 264.06,69.083 c 1.918,-0.916 3.548,-1.171 4.887,-0.765 1.338,0.406 2.337,1.299 2.995,2.677 0.671,1.406 0.743,2.756 0.217,4.053 -0.526,1.294 -1.748,2.4 -3.667,3.316 z" />
		<path
   id="path89"
   d="m 330.697,60.237 -14.063,3.752 12.335,46.224 c 0.711,2.663 0.645,4.796 -0.198,6.399 -0.843,1.604 -2.205,2.657 -4.085,3.159 -1.91,0.51 -3.639,0.274 -5.187,-0.708 -1.548,-0.981 -2.674,-2.789 -3.376,-5.422 l -12.335,-46.225 -14.063,3.753 c -2.199,0.587 -3.963,0.539 -5.292,-0.145 -1.329,-0.684 -2.206,-1.821 -2.631,-3.413 -0.44,-1.649 -0.231,-3.1 0.628,-4.353 0.859,-1.252 2.345,-2.16 4.458,-2.724 L 327.86,49.6 c 2.228,-0.595 4.016,-0.544 5.364,0.149 1.348,0.694 2.234,1.837 2.658,3.428 0.425,1.592 0.216,3.019 -0.624,4.282 -0.842,1.267 -2.362,2.191 -4.561,2.778 z" />
		<path
   id="path91"
   d="M 398.239,98.337 386.066,59.295 376.828,99.17 c -0.722,3.025 -1.304,5.198 -1.747,6.519 -0.443,1.321 -1.258,2.521 -2.445,3.602 -1.187,1.08 -2.798,1.66 -4.833,1.739 -1.646,0.064 -3.013,-0.19 -4.098,-0.762 -1.086,-0.572 -1.981,-1.407 -2.682,-2.503 -0.703,-1.097 -1.293,-2.407 -1.771,-3.932 -0.479,-1.524 -0.909,-2.938 -1.289,-4.243 L 345.286,55.71 c -0.758,-2.547 -1.164,-4.495 -1.216,-5.842 -0.066,-1.706 0.476,-3.166 1.628,-4.379 1.151,-1.214 2.61,-1.855 4.376,-1.924 2.424,-0.094 4.085,0.621 4.983,2.144 0.898,1.524 1.72,3.754 2.463,6.692 l 10.113,38.089 8.252,-36.331 c 0.611,-2.781 1.173,-4.901 1.686,-6.359 0.512,-1.458 1.392,-2.736 2.638,-3.834 1.245,-1.097 2.976,-1.689 5.19,-1.775 2.245,-0.087 4.009,0.391 5.293,1.435 1.284,1.044 2.19,2.201 2.72,3.468 0.528,1.268 1.255,3.368 2.178,6.299 l 11.14,35.576 7.123,-38.759 c 0.341,-2.021 0.676,-3.607 1.007,-4.759 0.329,-1.151 0.933,-2.194 1.812,-3.127 0.877,-0.934 2.184,-1.434 3.92,-1.501 1.735,-0.067 3.231,0.452 4.488,1.556 1.257,1.105 1.919,2.526 1.986,4.261 0.048,1.228 -0.205,3.2 -0.759,5.918 l -9.229,44.73 c -0.632,3.022 -1.168,5.238 -1.607,6.649 -0.439,1.411 -1.23,2.663 -2.371,3.756 -1.142,1.093 -2.789,1.682 -4.944,1.766 -2.035,0.079 -3.686,-0.367 -4.952,-1.336 -1.266,-0.969 -2.164,-2.081 -2.692,-3.334 -0.528,-1.252 -1.285,-3.403 -2.273,-6.452 z" />
		<path
   id="path93"
   d="m 473.549,49.602 c 6.681,1.413 12.129,3.981 16.347,7.704 4.217,3.724 7.028,8.344 8.434,13.859 1.404,5.516 1.395,11.644 -0.031,18.382 -1.053,4.981 -2.685,9.366 -4.894,13.153 -2.209,3.787 -4.978,6.891 -8.305,9.309 -3.328,2.418 -7.122,4.004 -11.383,4.756 -4.261,0.752 -8.926,0.592 -13.994,-0.48 -5.04,-1.066 -9.381,-2.833 -13.021,-5.302 -3.642,-2.469 -6.482,-5.464 -8.522,-8.988 -2.041,-3.523 -3.302,-7.509 -3.784,-11.958 -0.483,-4.448 -0.213,-9.09 0.81,-13.925 1.047,-4.951 2.717,-9.343 5.013,-13.174 2.294,-3.831 5.096,-6.912 8.405,-9.242 3.309,-2.331 7.06,-3.856 11.253,-4.576 4.191,-0.72 8.749,-0.559 13.672,0.482 z m 11.539,37.06 c 0.997,-4.717 1.1,-8.965 0.308,-12.745 -0.793,-3.779 -2.415,-6.854 -4.867,-9.226 -2.453,-2.37 -5.511,-3.943 -9.173,-4.717 -2.608,-0.552 -5.122,-0.57 -7.541,-0.057 -2.421,0.514 -4.627,1.54 -6.62,3.077 -1.994,1.538 -3.76,3.667 -5.299,6.387 -1.54,2.721 -2.693,5.897 -3.462,9.53 -0.774,3.663 -1.014,7.071 -0.716,10.225 0.297,3.155 1.081,5.884 2.354,8.189 1.272,2.305 2.898,4.171 4.877,5.6 1.978,1.429 4.271,2.418 6.879,2.97 3.34,0.706 6.586,0.52 9.737,-0.558 3.15,-1.079 5.923,-3.186 8.316,-6.323 2.392,-3.136 4.129,-7.254 5.207,-12.352 z" />
		<path
   id="path95"
   d="m 523.361,105.58 -4.258,-1.924 -8.713,19.281 c -1.146,2.538 -2.552,4.155 -4.213,4.85 -1.662,0.695 -3.393,0.636 -5.194,-0.178 -1.938,-0.876 -3.154,-2.182 -3.651,-3.918 -0.497,-1.736 -0.197,-3.818 0.9,-6.248 L 519.1,71.267 c 1.184,-2.62 2.627,-4.251 4.331,-4.895 1.703,-0.643 3.866,-0.373 6.485,0.811 l 19.772,8.935 c 2.729,1.233 5.01,2.404 6.843,3.511 1.833,1.108 3.367,2.368 4.602,3.78 1.525,1.643 2.678,3.527 3.459,5.655 0.78,2.127 1.104,4.336 0.974,6.626 -0.132,2.291 -0.69,4.527 -1.677,6.71 -2.022,4.476 -4.9,7.48 -8.633,9.014 -3.733,1.534 -8.418,1.701 -14.055,0.501 1.638,2.12 2.935,4.744 3.888,7.869 0.954,3.126 1.631,6.3 2.032,9.521 0.401,3.221 0.572,6.043 0.514,8.464 -0.06,2.422 -0.262,4.015 -0.607,4.779 -0.357,0.792 -0.965,1.461 -1.82,2.011 -0.857,0.55 -1.823,0.853 -2.9,0.908 -1.077,0.055 -2.188,-0.176 -3.334,-0.693 -1.365,-0.617 -2.366,-1.456 -3.004,-2.516 -0.639,-1.061 -1.069,-2.233 -1.294,-3.518 -0.226,-1.285 -0.479,-3.141 -0.762,-5.569 l -1.209,-10.307 c -0.402,-3.764 -0.941,-6.735 -1.616,-8.914 -0.675,-2.179 -1.593,-3.875 -2.753,-5.089 -1.161,-1.213 -2.819,-2.307 -4.975,-3.281 z m 18.355,-22.072 -11.217,-5.069 -7.455,16.498 10.889,4.92 c 2.92,1.319 5.49,2.177 7.711,2.573 2.22,0.395 4.13,0.223 5.729,-0.517 1.6,-0.739 2.881,-2.174 3.843,-4.302 0.752,-1.665 0.991,-3.323 0.72,-4.974 -0.273,-1.651 -1.019,-3.13 -2.235,-4.436 -1.149,-1.242 -3.81,-2.806 -7.985,-4.693 z" />
		<path
   id="path97"
   d="m 594.855,109.352 -13.636,18.634 37.264,-6.575 c 1.793,-0.32 3.232,-0.474 4.316,-0.459 1.084,0.014 2.219,0.455 3.403,1.321 1.546,1.131 2.466,2.5 2.757,4.105 0.292,1.605 -0.04,3.06 -0.995,4.365 -1.149,1.571 -3.101,2.538 -5.851,2.899 l -22.16,2.821 -0.73,32.642 c -0.033,2.277 -0.195,4.171 -0.485,5.684 -0.291,1.513 -0.825,2.801 -1.604,3.865 -0.866,1.184 -2.084,1.871 -3.65,2.06 -1.567,0.189 -3.148,-0.3 -4.743,-1.467 -1.499,-1.097 -2.484,-2.31 -2.959,-3.64 -0.474,-1.33 -0.648,-2.765 -0.522,-4.307 0.126,-1.541 0.253,-2.932 0.383,-4.173 l 1.601,-28.888 -14.99,2 -8.038,10.984 c -1.628,2.224 -3.342,3.501 -5.144,3.834 -1.802,0.333 -3.501,-0.084 -5.096,-1.252 -0.919,-0.672 -1.624,-1.56 -2.116,-2.662 -0.493,-1.103 -0.668,-2.232 -0.525,-3.39 0.156,-0.924 0.526,-1.86 1.108,-2.807 0.582,-0.947 1.491,-2.267 2.729,-3.958 l 28.916,-39.515 c 1.592,-2.175 3.263,-3.458 5.014,-3.846 1.75,-0.389 3.447,0.018 5.091,1.221 1.619,1.185 2.536,2.682 2.753,4.492 0.215,1.808 -0.482,3.813 -2.091,6.012 z" />
	</g>
<g
   id="Layer_2"
   transform="translate(-88.765604,-98.751729)">
	<g
   id="g100">
		<g
   id="g102">
			<path
   d="m 399.368,143.972 c -137.567,0 -249.087,111.52 -249.087,249.087 0,137.567 111.52,249.087 249.087,249.087 137.567,0 249.087,-111.52 249.087,-249.087 0,-137.567 -111.519,-249.087 -249.087,-249.087 z m 0,472.77 c -123.536,0 -223.683,-100.146 -223.683,-223.683 0,-123.537 100.146,-223.683 223.683,-223.683 123.537,0 223.683,100.146 223.683,223.683 0,123.538 -100.146,223.683 -223.683,223.683 z"
   id="path104" />
		</g>
		<g
   id="g106">
			<path
   d="m 399.368,143.972 c -137.567,0 -249.087,111.52 -249.087,249.087 0,137.567 111.52,249.087 249.087,249.087 137.567,0 249.087,-111.52 249.087,-249.087 0,-137.567 -111.519,-249.087 -249.087,-249.087 z m 0,472.77 c -123.536,0 -223.683,-100.146 -223.683,-223.683 0,-123.537 100.146,-223.683 223.683,-223.683 123.537,0 223.683,100.146 223.683,223.683 0,123.538 -100.146,223.683 -223.683,223.683 z"
   id="path108"
   style="fill:none" />
		</g>
	</g>
</g>
<g
   id="g3795"
   transform="translate(504.9437,432.35619)"><text
   id="text3783"
   y="-84.283157"
   x="175.89111"
   style="font-size:89.49217987px;font-style:normal;font-weight:normal;fill:#000000;fill-opacity:1;stroke:none;font-family:Bitstream Vera Sans"
   xml:space="preserve"><tspan
     id="tspan3785"
     y="-84.283157"
     x="175.89111"
     sodipodi:role="line">NE</tspan></text>

<text
   id="text3787"
   y="-104.62214"
   x="277.96609"
   style="font-size:89.49217987px;font-style:normal;font-weight:normal;fill:#000000;fill-opacity:1;stroke:none;font-family:Bitstream Vera Sans"
   xml:space="preserve"><tspan
     id="tspan3789"
     y="-104.62214"
     x="277.96609"
     sodipodi:role="line">TWORK</tspan></text>

<text
   id="text3791"
   y="-32.203388"
   x="294.06778"
   style="font-size:91.3146286px;font-style:normal;font-weight:normal;fill:#000000;fill-opacity:1;stroke:none;font-family:Bitstream Vera Sans"
   xml:space="preserve"><tspan
     y="-32.203388"
     x="294.06778"
     id="tspan3793"
     sodipodi:role="line">UTRALITY</tspan></text>

</g><g
   style="font-size:89.49217987000000100px;font-style:normal;font-weight:normal;fill:#000000;fill-opacity:1;stroke:#000000;font-family:Bitstream Vera Sans;stroke-width:0;stroke-miterlimit:4;stroke-dasharray:none;stroke-opacity:1"
   id="text3740"
   transform="translate(-432.83263,1015.8412)"><path
     d="m 627.15758,-397.05273 0,-56.50068 -21.10582,0 0,-7.55964 50.77632,0 0,7.55964 -21.19321,0 0,56.50068 z"
     id="path3827"
     style="stroke-width:0;stroke-miterlimit:4;stroke-dasharray:none;stroke:#000000;stroke-opacity:1" /><path
     d="m 676.75408,-397.05273 -16.99827,-64.06032 8.69577,0 9.74451,41.99315 c 1.04871,4.39889 1.95179,8.76862 2.70923,13.10921 1.63135,-6.8459 2.59269,-10.79323 2.88403,-11.84198 l 12.19156,-43.26038 10.22518,0 9.17645,32.42343 c 2.30133,8.04034 3.96183,15.59997 4.9815,22.67893 0.81562,-4.04928 1.87892,-8.69576 3.1899,-13.93946 l 10.05039,-41.1629 8.52099,0 -17.56634,64.06032 -8.1714,0 -13.50249,-48.80995 c -1.13617,-4.07836 -1.8062,-6.58368 -2.01007,-7.51594 -0.67007,2.94234 -1.2964,5.44765 -1.87899,7.51594 l -13.58988,48.80995 z"
     id="path3829"
     style="stroke-width:0;stroke-miterlimit:4;stroke-dasharray:none;stroke:#000000;stroke-opacity:1" /><path
     d="m 747.41269,-428.25264 c 0,-10.63299 2.85489,-18.95732 8.56468,-24.97304 5.70977,-6.01561 13.08005,-9.02344 22.11086,-9.02351 5.91367,7e-5 11.24474,1.41295 15.99324,4.23865 4.74839,2.82582 8.36798,6.76586 10.85879,11.82013 2.49068,5.05437 3.73606,10.786 3.73612,17.19491 -6e-5,6.49637 -1.31098,12.30811 -3.93276,17.43524 -2.6219,5.12717 -6.33617,9.00895 -11.14282,11.64535 -4.80676,2.63641 -9.99217,3.95461 -15.55626,3.95461 -6.03027,0 -11.4196,-1.45658 -16.16802,-4.36974 -4.74846,-2.91315 -8.34621,-6.8896 -10.79325,-11.92937 -2.44706,-5.03974 -3.67058,-10.37082 -3.67058,-15.99323 z m 8.73947,0.13109 c -10e-6,7.71989 2.07561,13.8011 6.22688,18.24364 4.15122,4.44258 9.35848,6.66385 15.6218,6.66385 6.37977,0 11.63073,-2.24312 15.7529,-6.72939 4.12206,-4.48625 6.18311,-10.85149 6.18317,-19.09575 -6e-5,-5.21451 -0.88128,-9.76631 -2.64369,-13.65542 -1.76251,-3.88901 -4.34065,-6.90413 -7.73443,-9.04535 -3.39387,-2.14112 -7.20282,-3.2117 -11.42686,-3.21176 -6.00113,6e-5 -11.1647,2.06112 -15.49071,6.18318 -4.32605,4.12216 -6.48907,11.00449 -6.48906,20.647 z"
     id="path3831"
     style="stroke-width:0;stroke-miterlimit:4;stroke-dasharray:none;stroke:#000000;stroke-opacity:1" /><path
     d="m 819.68812,-397.05273 0,-64.06032 28.40328,0 c 5.70975,6e-5 10.05035,0.57541 13.02181,1.72604 2.97137,1.15076 5.34559,3.18268 7.12267,6.09578 1.77697,2.91321 2.66548,6.13225 2.66554,9.65712 -6e-5,4.54456 -1.4712,8.37536 -4.41343,11.4924 -2.94234,3.11711 -7.48686,5.09806 -13.63358,5.94284 2.24309,1.0779 3.94729,2.1412 5.11259,3.18991 2.47614,2.27228 4.82123,5.11261 7.03528,8.52098 l 11.14282,17.43525 -10.66215,0 -8.47729,-13.3277 c -2.47622,-3.84535 -4.51543,-6.78763 -6.11763,-8.82686 -1.60227,-2.03919 -3.037,-3.46663 -4.30419,-4.28234 -1.26725,-0.81566 -2.55632,-1.38372 -3.86721,-1.7042 -0.96137,-0.20389 -2.53448,-0.30585 -4.71932,-0.30588 l -9.8319,0 0,28.44698 z m 8.47729,-35.78814 18.22179,0 c 3.87447,4e-5 6.90415,-0.40052 9.08905,-1.20167 2.18483,-0.80108 3.84532,-2.08287 4.9815,-3.84537 1.13608,-1.76242 1.70415,-3.67782 1.7042,-5.7462 -5e-5,-3.02964 -1.09977,-5.52038 -3.29915,-7.47225 -2.19948,-1.95176 -5.67342,-2.92767 -10.42182,-2.92772 l -20.27557,0 z"
     id="path3833"
     style="stroke-width:0;stroke-miterlimit:4;stroke-dasharray:none;stroke:#000000;stroke-opacity:1" /><path
     d="m 883.87952,-397.05273 0,-64.06032 8.47729,0 0,31.76797 31.81167,-31.76797 11.49241,0 -26.87387,25.95622 28.0537,38.1041 -11.18653,0 -22.81001,-32.42344 -10.48737,10.22518 0,22.19826 z"
     id="path3835"
     style="stroke-width:0;stroke-miterlimit:4;stroke-dasharray:none;stroke:#000000;stroke-opacity:1" /></g><path
   id="path3810"
   style="font-size:91.31462860000000600px;font-style:normal;font-weight:normal;fill:#000000;fill-opacity:1;stroke:#000000;font-family:Bitstream Vera Sans;stroke-width:0;stroke-miterlimit:4;stroke-dasharray:none;stroke-opacity:1"
   d="m 236.88812,625.84229 8.64992,0 0,37.76538 c -6e-5,6.5692 -0.74318,11.7859 -2.22936,15.65011 -1.4863,3.86424 -4.16896,7.00763 -8.048,9.4302 -3.87913,2.42257 -8.9695,3.63386 -15.27112,3.63386 -6.12334,0 -11.13196,-1.05523 -15.02589,-3.16569 -3.89397,-2.11046 -6.67324,-5.16468 -8.33781,-9.16268 -1.6646,-3.99797 -2.4969,-9.4599 -2.49689,-16.3858 l 0,-37.76538 8.64992,0 0,37.72079 c -1e-5,5.67746 0.5276,9.86123 1.58285,12.5513 1.05521,2.69011 2.86842,4.76341 5.43964,6.21992 2.57117,1.45652 5.71457,2.18478 9.4302,2.18477 6.36107,10e-6 10.8941,-1.44164 13.5991,-4.32496 2.70491,-2.88329 4.05739,-8.42696 4.05744,-16.63103 z" /><path
   id="path3812"
   style="font-size:91.31462860000000600px;font-style:normal;font-weight:normal;fill:#000000;fill-opacity:1;stroke:#000000;font-family:Bitstream Vera Sans;stroke-width:0;stroke-miterlimit:4;stroke-dasharray:none;stroke-opacity:1"
   d="m 270.88824,691.20716 0,-57.65128 -21.53562,0 0,-7.71359 51.81035,0 0,7.71359 -21.62481,0 0,57.65128 z" /><path
   id="path3814"
   style="font-size:91.31462860000000600px;font-style:normal;font-weight:normal;fill:#000000;fill-opacity:1;stroke:#000000;font-family:Bitstream Vera Sans;stroke-width:0;stroke-miterlimit:4;stroke-dasharray:none;stroke-opacity:1"
   d="m 306.21417,691.20716 0,-65.36487 28.98169,0 c 5.82602,7e-5 10.25502,0.58713 13.28699,1.7612 3.03188,1.17419 5.45445,3.24749 7.26772,6.21991 1.81316,2.97254 2.71976,6.25713 2.71982,9.85378 -6e-5,4.63711 -1.50116,8.54592 -4.50331,11.72644 -3.00226,3.18059 -7.63932,5.20187 -13.91121,6.06386 2.28877,1.09985 4.02767,2.1848 5.2167,3.25487 2.52656,2.31856 4.91941,5.21672 7.17855,8.69451 l 11.36974,17.7903 -10.87928,0 -8.64993,-13.59911 c -2.52665,-3.92365 -4.60738,-6.92586 -6.24221,-9.00661 -1.6349,-2.08072 -3.09884,-3.53723 -4.39184,-4.36955 -1.29306,-0.83227 -2.60838,-1.4119 -3.94597,-1.7389 -0.98094,-0.20805 -2.58608,-0.31208 -4.81542,-0.31211 l -10.03212,0 0,29.02628 z m 8.64992,-36.51694 18.59287,0 c 3.95336,4e-5 7.04474,-0.40868 9.27414,-1.22615 2.22932,-0.81739 3.92363,-2.12528 5.08295,-3.92367 1.15921,-1.79831 1.73885,-3.75271 1.7389,-5.86322 -5e-5,-3.09133 -1.12216,-5.6328 -3.36634,-7.62442 -2.24427,-1.9915 -5.78895,-2.98728 -10.63405,-2.98734 l -20.68847,0 z" /><path
   id="path3816"
   style="font-size:91.31462860000000600px;font-style:normal;font-weight:normal;fill:#000000;fill-opacity:1;stroke:#000000;font-family:Bitstream Vera Sans;stroke-width:0;stroke-miterlimit:4;stroke-dasharray:none;stroke-opacity:1"
   d="m 354.89095,691.20716 25.10261,-65.36487 9.31873,0 26.75233,65.36487 -9.85377,0 -7.62442,-19.79673 -27.33197,0 -7.17854,19.79673 z m 18.8604,-26.84151 22.15985,0 -6.82185,-18.10241 c -2.08077,-5.49904 -3.62646,-10.01721 -4.63707,-13.55452 -0.83232,4.19126 -2.00645,8.35273 -3.52239,12.48443 z" /><path
   id="path3818"
   style="font-size:91.31462860000000600px;font-style:normal;font-weight:normal;fill:#000000;fill-opacity:1;stroke:#000000;font-family:Bitstream Vera Sans;stroke-width:0;stroke-miterlimit:4;stroke-dasharray:none;stroke-opacity:1"
   d="m 418.70811,691.20716 0,-65.36487 8.64993,0 0,57.65128 32.19197,0 0,7.71359 z" /><path
   id="path3820"
   style="font-size:91.31462860000000600px;font-style:normal;font-weight:normal;fill:#000000;fill-opacity:1;stroke:#000000;font-family:Bitstream Vera Sans;stroke-width:0;stroke-miterlimit:4;stroke-dasharray:none;stroke-opacity:1"
   d="m 463.36563,691.20716 0,-65.36487 8.64992,0 0,65.36487 z" /><path
   id="path3822"
   style="font-size:91.31462860000000600px;font-style:normal;font-weight:normal;fill:#000000;fill-opacity:1;stroke:#000000;font-family:Bitstream Vera Sans;stroke-width:0;stroke-miterlimit:4;stroke-dasharray:none;stroke-opacity:1"
   d="m 495.85081,691.20716 0,-57.65128 -21.53562,0 0,-7.71359 51.81035,0 0,7.71359 -21.62481,0 0,57.65128 z" /><path
   id="path3824"
   style="font-size:91.31462860000000600px;font-style:normal;font-weight:normal;fill:#000000;fill-opacity:1;stroke:#000000;font-family:Bitstream Vera Sans;stroke-width:0;stroke-miterlimit:4;stroke-dasharray:none;stroke-opacity:1"
   d="m 553.45747,691.20716 0,-27.68867 -25.1917,-37.6762 10.5225,0 12.8858,19.70755 c 2.3779,3.68592 4.5924,7.3718 6.6435,11.05763 1.9618,-3.41831 4.3397,-7.26767 7.1339,-11.54809 l 12.6628,-19.21709 10.0767,0 -26.0835,37.6762 0,27.68867 z" /><g
   style="font-size:89.49217987000000100px;font-style:normal;font-weight:normal;fill:#000000;fill-opacity:1;stroke:#000000;font-family:Bitstream Vera Sans;stroke-width:0;stroke-miterlimit:4;stroke-dasharray:none;stroke-opacity:1"
   id="text3858"
   transform="translate(-432.83263,1015.8412)"><path
     d="m 502.71443,-360.60373 0,-64.06032 8.69577,0 33.64697,50.29565 0,-50.29565 8.1277,0 0,64.06032 -8.69577,0 -33.64696,-50.33935 0,50.33935 z"
     id="path3863"
     style="stroke-width:0;stroke-miterlimit:4;stroke-dasharray:none;stroke:#000000;stroke-opacity:1" /><path
     d="m 567.6487,-360.60373 0,-64.06032 46.31919,0 0,7.55964 -37.84191,0 0,19.62011 59.43856,0 0,7.51595 -59.43856,0 0,21.80498 39.32762,0 0,7.55964 -47.8049,0 z"
     id="path3865"
     sodipodi:nodetypes="ccccccccccccc"
     style="stroke-width:0;stroke-miterlimit:4;stroke-dasharray:none;stroke:#000000;stroke-opacity:1" /></g></svg>